<svg width="67" height="66" viewBox="0 0 67 66" fill="none" xmlns="http://www.w3.org/2000/svg">
<rect x="1.86914" y="1" width="64" height="64" rx="5" fill="#2F2F2F" stroke="white" stroke-width="2"/>
<path d="M1.86914 31.3155C4.74848 27.9385 14.7555 18.8875 21.6437 16.4362C30.254 13.372 36.0034 16.0221 41.7528 15.3596C47.5022 14.6971 52.3018 13.212 55.918 14.283C59.5534 15.3596 62.9218 18.684 65.8691 23.7366" stroke="white" stroke-width="2" stroke-linecap="round"/>
<path d="M16.1836 38.8949C20.1018 34.8054 30.0997 25.9365 38.9204 26.2633C47.7146 26.5891 48.6046 26.6844 51.9731 24.5791" stroke="white" stroke-width="2" stroke-linecap="round"/>
<path d="M29.0134 29.3989C28.8835 29.8983 28.8145 30.4219 28.8145 30.9614C28.8145 34.413 31.6421 37.211 35.1302 37.211C38.6184 37.211 41.446 34.413 41.446 30.9614C41.446 29.0891 40.614 27.4091 39.2959 26.2637" stroke="white" stroke-width="2" stroke-linecap="round"/>
<path d="M39.005 26.2715C42.9981 26.022 44.2374 31.7894 50.709 31.7894C45.5761 37.3442 37.0453 41.4503 29.6143 41.437M18.709 36.7804C21.4003 40.0484 25.324 41.4293 29.6143 41.437M23.8863 40.4584C24.4921 40.9298 25.09 43.1058 22.0774 46.0531C18.5664 49.4881 20.8638 55.7292 25.511 54.8202C30.1583 53.9113 29.5417 48.835 28.8142 46.8952C27.5511 43.5268 29.3573 41.4315 29.6143 41.437" stroke="white" stroke-width="2" stroke-linecap="round" stroke-linejoin="round"/>
</svg>
